<?xml version="1.0" standalone="no"?>
<!DOCTYPE svg PUBLIC "-//W3C//DTD SVG 20010904//EN"
 "http://www.w3.org/TR/2001/REC-SVG-20010904/DTD/svg10.dtd">
<svg version="1.0" xmlns="http://www.w3.org/2000/svg"
 width="700.000000pt" height="700.000000pt" viewBox="0 0 700.000000 700.000000"
 preserveAspectRatio="xMidYMid meet">
<metadata>
Created by potrace 1.11, written by Peter Selinger 2001-2013
</metadata>
<g transform="translate(0.000000,700.000000) scale(0.100000,-0.100000)"
fill="#000000" stroke="none">
<path d="M5650 6986 c-294 -81 -539 -396 -895 -1151 -77 -164 -265 -540 -291
-582 l-24 -38 6 50 c2 28 6 124 8 214 5 230 -21 334 -117 461 -72 94 -138 148
-239 195 -28 13 -53 30 -54 37 -1 7 -5 31 -8 53 -9 60 -69 174 -118 224 -88
91 -203 145 -325 154 -16 1 -23 8 -24 22 -1 57 -10 97 -30 140 -76 162 -271
225 -430 138 -27 -14 -49 -30 -49 -35 0 -14 -21 -9 -53 16 -126 93 -317 75
-431 -41 -57 -58 -86 -121 -100 -216 -2 -19 -25 -39 -36 -32 -11 7 -99 -23
-151 -51 -105 -58 -198 -192 -217 -314 -8 -55 -8 -73 -1 -140 4 -35 4 -35 -43
-42 -256 -36 -444 -256 -440 -513 2 -83 10 -121 44 -197 l21 -46 -42 -49
c-108 -129 -121 -304 -32 -448 13 -22 31 -45 40 -52 14 -10 14 -13 -4 -33 -11
-12 -32 -31 -46 -41 l-27 -19 -24 38 c-119 177 -318 317 -494 347 -98 16 -152
5 -194 -40 -20 -21 -25 -37 -25 -80 0 -81 42 -118 149 -130 125 -13 218 -72
323 -204 29 -36 49 -68 45 -72 -4 -3 -45 -19 -92 -34 -395 -127 -531 -324
-451 -657 18 -75 18 -77 -2 -96 -22 -22 -24 -60 -13 -207 11 -144 14 -184 21
-290 4 -55 8 -116 10 -136 2 -19 6 -85 10 -145 3 -60 8 -125 10 -144 3 -19 7
-80 10 -135 5 -96 11 -179 20 -275 2 -25 7 -92 10 -150 3 -58 8 -125 10 -150
3 -25 7 -85 10 -135 3 -49 7 -112 9 -140 3 -27 7 -93 11 -145 4 -52 8 -115 10
-140 2 -25 6 -90 10 -145 3 -55 8 -120 10 -145 4 -45 9 -117 20 -285 4 -49 8
-115 10 -145 2 -30 7 -93 10 -140 13 -192 22 -234 72 -338 51 -106 160 -215
264 -265 148 -72 -2 -67 2089 -64 1793 2 1887 3 1935 20 168 61 287 158 357
293 55 105 67 162 83 389 3 44 7 109 10 145 2 36 7 103 10 150 5 80 10 150 20
280 2 30 7 96 10 145 3 50 8 115 10 145 10 130 17 229 20 280 5 83 15 232 30
443 8 107 14 196 20 287 3 47 8 110 10 140 3 30 7 98 10 150 3 52 8 115 10
140 2 25 7 86 10 135 3 50 8 117 10 150 18 265 23 333 30 419 4 49 1 68 -10
80 -19 19 -33 16 -129 -28 -42 -20 -80 -36 -82 -36 -3 0 0 8 5 18 40 76 236
752 275 952 3 14 7 34 10 45 8 39 76 381 81 415 3 19 8 42 10 50 2 8 7 35 10
60 3 25 10 72 15 105 5 33 12 80 15 105 3 25 8 56 10 70 2 14 6 52 9 85 4 33
8 76 11 95 27 212 48 646 34 710 -4 19 -10 49 -12 65 -7 41 -44 150 -69 199
-59 117 -147 209 -244 257 -54 27 -79 33 -142 35 -42 1 -97 -4 -122 -10z
m-3325 -3334 c-3 -3 -11 0 -18 7 -9 10 -8 11 6 5 10 -3 15 -9 12 -12z m2600
-22 c3 -6 -1 -7 -9 -4 -18 7 -21 14 -7 14 6 0 13 -4 16 -10z"/>
</g>
</svg>
